<?xml version="1.0" encoding="iso-8859-1"?>
<!-- Generator: Adobe Illustrator 16.0.0, SVG Export Plug-In . SVG Version: 6.00 Build 0)  -->
<!DOCTYPE svg PUBLIC "-//W3C//DTD SVG 1.1//EN" "http://www.w3.org/Graphics/SVG/1.1/DTD/svg11.dtd">
<svg version="1.1" id="Capa_1" xmlns="http://www.w3.org/2000/svg" xmlns:xlink="http://www.w3.org/1999/xlink" x="0px" y="0px"
	 width="61.385px" height="61.385px" viewBox="0 0 61.385 61.385" style="enable-background:new 0 0 61.385 61.385;"
	 xml:space="preserve">
<g>
	<g>
		<path d="M39.703,46.734c-4.877,0-9.498-0.888-13.736-2.635c-5.134-2.118-9.694-3.192-13.551-3.193c-2.445,0-4.15,0.407-5.52,0.733
			c-0.872,0.208-1.562,0.373-2.211,0.373c-0.657,0-1.203-0.185-1.668-0.542v5.642c0,0,5.82,1.229,12.493,0.749
			c0,0-0.48-2.941,4.324-1.951c4.805,0.989,24.315,8.379,41.376-1.52c0,0,0.592-1.826-0.402-2.976l0.021,0.099l-0.688,0.369
			C59.771,42.08,50.979,46.734,39.703,46.734z"/>
		<path d="M1.538,15.548c0.026,0.014,0.052,0.028,0.078,0.042c0.13,0.068,0.266,0.14,0.401,0.214
			c0.161,0.088,0.321,0.181,0.479,0.28c-0.218,0.146-0.353,0.396-0.314,0.694c0.195,1.532,0.599,4.904,0.752,7.682
			c0.194,3.486-1.956,12.113,0.082,15.455c0.138,0.226,0.293,0.427,0.47,0.601c0.336,0.33,0.722,0.453,1.198,0.453
			c1.423,0,3.647-1.106,7.732-1.106c3.274,0,7.743,0.711,13.949,3.271c4.549,1.876,9.111,2.557,13.338,2.557
			c11.144,0,19.946-4.728,19.946-4.728c-0.022-0.106-0.062-0.203-0.096-0.303c-1.789-5.459-18.859-2.133-20.889-5.279
			c-2.068-3.205-6.513-5.065-7.029-6.926c-0.517-1.861-4.342-6.409-4.342-6.409V15.12c0,0-1.654-1.654-4.042-1.654
			c-1.195,0-2.573,0.414-4.021,1.654c-1.699,1.457-3.698,1.899-5.502,1.899c-2.808,0-5.144-1.072-5.144-1.072H5.553
			c-0.018-0.17-0.04-0.344-0.065-0.521c-0.025-0.173-0.055-0.347-0.09-0.521c-0.178-0.891-0.489-1.775-1.029-2.342
			c-0.735-0.769-1.792-0.887-2.93-0.28C0.727,12.664-0.002,13.154,0,13.918C0.001,14.711,0.706,15.107,1.538,15.548z M2.174,13.665
			c0.255-0.136,0.485-0.208,0.661-0.208c0.11,0,0.245,0.022,0.404,0.188C3.49,13.908,3.67,14.371,3.8,14.908
			c0.017,0.068,0.036,0.133,0.05,0.203c-0.103-0.077-0.208-0.133-0.312-0.203c-0.415-0.272-0.831-0.508-1.192-0.699
			C2.168,14.115,1.95,14,1.778,13.898C1.873,13.834,2.001,13.756,2.174,13.665z"/>
	</g>
</g>
<g>
</g>
<g>
</g>
<g>
</g>
<g>
</g>
<g>
</g>
<g>
</g>
<g>
</g>
<g>
</g>
<g>
</g>
<g>
</g>
<g>
</g>
<g>
</g>
<g>
</g>
<g>
</g>
<g>
</g>
</svg>
