<?xml version="1.0" encoding="utf-8"?>
<!-- Generator: Adobe Illustrator 22.1.0, SVG Export Plug-In . SVG Version: 6.00 Build 0)  -->
<svg version="1.1" id="Capa_1" xmlns="http://www.w3.org/2000/svg" xmlns:xlink="http://www.w3.org/1999/xlink" x="0px" y="0px"
	 viewBox="0 0 516.4 516.4" style="enable-background:new 0 0 516.4 516.4;" xml:space="preserve">
<g>
	<g id="Layer_2_32_">
		<rect x="66.9" y="133.9" width="19.1" height="248.6"/>
		<rect x="172.1" y="133.9" width="172.1" height="248.6"/>
		<polygon points="414.2,173.7 376,203.1 414.2,232.6 376,262.1 414.2,291.6 376,321 414.2,350.5 376,380 379.2,382.5 420.8,382.5 
			420.8,133.9 389.4,133.9 376,144.2 		"/>
		<polygon points="363.6,382.5 360.3,380 398.6,350.5 360.3,321 398.6,291.6 360.3,262.1 398.6,232.6 360.3,203.1 398.6,173.7 
			360.3,144.2 373.7,133.9 353.8,133.9 353.8,382.5 		"/>
		<polygon points="105.4,382.5 102.1,380 140.4,350.5 102.1,321 140.4,291.6 102.1,262.1 140.4,232.6 102.1,203.1 140.4,173.7 
			102.1,144.2 115.5,133.9 95.6,133.9 95.6,382.5 		"/>
		<polygon points="156.1,173.7 117.8,203.1 156.1,232.6 117.8,262.1 156.1,291.6 117.8,321 156.1,350.5 117.8,380 121.1,382.5 
			162.6,382.5 162.6,133.9 131.2,133.9 117.8,144.2 		"/>
		<rect x="430.3" y="133.9" width="19.1" height="248.6"/>
		<rect x="459" y="133.9" width="57.4" height="19.1"/>
		<rect x="459" y="162.6" width="57.4" height="19.1"/>
		<rect x="459" y="191.2" width="57.4" height="19.1"/>
		<rect x="459" y="219.9" width="57.4" height="19.1"/>
		<rect x="459" y="248.6" width="57.4" height="19.1"/>
		<rect x="459" y="277.3" width="57.4" height="19.1"/>
		<rect x="459" y="306" width="57.4" height="19.1"/>
		<rect x="459" y="334.7" width="57.4" height="19.1"/>
		<rect x="459" y="363.4" width="57.4" height="19.1"/>
		<rect y="133.9" width="57.4" height="19.1"/>
		<rect y="162.6" width="57.4" height="19.1"/>
		<rect y="191.2" width="57.4" height="19.1"/>
		<rect y="219.9" width="57.4" height="19.1"/>
		<rect y="248.6" width="57.4" height="19.1"/>
		<rect y="277.3" width="57.4" height="19.1"/>
		<rect y="306" width="57.4" height="19.1"/>
		<rect y="334.7" width="57.4" height="19.1"/>
		<rect y="363.4" width="57.4" height="19.1"/>
	</g>
</g>
</svg>
