<?xml version="1.0" encoding="utf-8"?>
<!-- Generator: Adobe Illustrator 22.1.0, SVG Export Plug-In . SVG Version: 6.00 Build 0)  -->
<svg version="1.1" xmlns="http://www.w3.org/2000/svg" xmlns:xlink="http://www.w3.org/1999/xlink" x="0px" y="0px"
	 viewBox="0 0 50 50" style="enable-background:new 0 0 50 50;" xml:space="preserve">
<style type="text/css">
	.st0{fill:#CADD6E;}
	.st1{display:none;}
	.st2{display:inline;fill:#FFFFFF;}
</style>
<g id="Layer_3">
	<rect x="20" y="35" transform="matrix(0.7071 -0.7071 0.7071 0.7071 -20.3406 27.8934)" class="st0" width="7" height="7"/>
	<rect x="20" y="7" transform="matrix(0.7071 -0.7071 0.7071 0.7071 -0.5416 19.6924)" class="st0" width="7" height="7"/>
	<rect x="6" y="21" transform="matrix(0.7071 -0.7071 0.7071 0.7071 -14.5416 13.8934)" class="st0" width="7" height="7"/>
	<rect x="34" y="21" transform="matrix(0.7071 -0.7071 0.7071 0.7071 -6.3406 33.6924)" class="st0" width="7" height="7"/>
</g>
<g id="Layer_2" class="st1">
	<rect x="10" y="13" class="st2" width="7" height="7"/>
	<rect x="30" y="13" class="st2" width="7" height="7"/>
	<rect x="2" y="27" transform="matrix(0.7071 -0.7071 0.7071 0.7071 -19.9558 12.8223)" class="st2" width="7" height="7"/>
</g>
</svg>
